<svg width="12" height="12" viewBox="0 0 12 12" fill="none" xmlns="http://www.w3.org/2000/svg">
<g clip-path="url(#clip0_5_1256)">
<path d="M6.00454 12.0091C9.32076 12.0091 12.0091 9.32076 12.0091 6.00454C12.0091 2.68833 9.32076 0 6.00454 0C2.68833 0 0 2.68833 0 6.00454C0 9.32076 2.68833 12.0091 6.00454 12.0091Z" fill="#C11D2F"/>
<path d="M7.82132 4.45117C7.83105 4.67059 7.77745 4.88818 7.6669 5.07797C7.56533 5.25233 7.42557 5.40141 7.25811 5.514C7.08119 5.62489 6.88813 5.70763 6.68582 5.75927C7.03635 5.78131 7.37061 5.91501 7.63965 6.1408C7.75375 6.24481 7.84315 6.37303 7.90131 6.51606C7.95946 6.65909 7.98489 6.81332 7.97575 6.96745C7.98037 7.24761 7.9013 7.52278 7.74865 7.75775C7.58188 8.01411 7.34111 8.21371 7.05827 8.33005C6.67369 8.48022 6.26277 8.55127 5.85009 8.53898C5.57286 8.54104 5.29606 8.51671 5.02344 8.46631C4.78386 8.42033 4.54953 8.35033 4.32397 8.25738V7.23996C4.54448 7.35827 4.77968 7.44685 5.02344 7.5034C5.24383 7.55528 5.46927 7.5827 5.69566 7.58516C5.963 7.6091 6.23086 7.54532 6.45872 7.40348C6.53068 7.34428 6.58785 7.26912 6.6257 7.18397C6.66354 7.09882 6.68101 7.00602 6.67673 6.91294C6.67956 6.79457 6.64102 6.67892 6.56773 6.58592C6.47608 6.47713 6.35187 6.40069 6.21345 6.3679C5.97511 6.31396 5.73103 6.28956 5.48673 6.29523H5.13245V5.38683H5.49581C5.72582 5.39602 5.95582 5.36842 6.17712 5.30507C6.3125 5.27109 6.43345 5.1947 6.52231 5.08705C6.58605 4.99023 6.61782 4.87585 6.61315 4.76003C6.61315 4.42392 6.39513 4.25132 5.95002 4.25132C5.73039 4.24717 5.51277 4.2938 5.31413 4.38758C5.16293 4.45147 5.01712 4.52741 4.8781 4.61468L4.33306 3.77895C4.55849 3.62443 4.8027 3.49927 5.05978 3.40651C5.3942 3.29955 5.74441 3.2504 6.09536 3.26116C6.53848 3.23945 6.97804 3.35013 7.35804 3.5791C7.50118 3.67498 7.6184 3.80479 7.69923 3.95694C7.78006 4.1091 7.822 4.27888 7.82132 4.45117Z" fill="white"/>
</g>
<defs>
<clipPath id="clip0_5_1256">
<rect width="12" height="12" fill="white"/>
</clipPath>
</defs>
</svg>
